<?xml version="1.0" encoding="UTF-8"?>
<!DOCTYPE svg PUBLIC "-//W3C//DTD SVG 1.1//EN" "http://www.w3.org/Graphics/SVG/1.1/DTD/svg11.dtd">
<svg version="1.1" xmlns="http://www.w3.org/2000/svg" xmlns:xlink="http://www.w3.org/1999/xlink" width="172" height="52"  xml:space="preserve" id="clearCode">
    <!-- Generated by PaintCode (www.paintcodeapp.com) -->
    <g id="clearCode-group">
        <path id="clearCode-bezier2" stroke="none" fill="rgb(126, 172, 106)" d="M 11.87,22.45 C 11.13,21.63 10.22,21.75 9.77,22.76 L 8.59,25.42 C 8.15,26.43 8.54,27.73 9.45,28.35 12,30.07 16.8,33.49 19.15,36.33 19.85,37.18 20.84,38.69 21.21,39.74 21.67,41.08 22.09,43.35 21.85,47.01 21.78,48.11 22.56,49 23.67,49 L 28.05,49 31.97,49 C 33.08,49 33.86,48.11 33.79,47.01 33.55,43.35 33.97,41.08 34.43,39.74 34.8,38.7 35.78,37.18 36.49,36.33 38.84,33.49 43.64,30.07 46.18,28.35 47.1,27.73 47.49,26.43 47.05,25.42 L 45.87,22.76 C 45.42,21.75 44.51,21.64 43.78,22.47 41.19,25.42 34.94,31.59 27.94,31.87 20.92,31.59 14.52,25.39 11.87,22.45 Z M 11.87,22.45" />
        <circle id="clearCode-oval2" stroke="none" fill="rgb(126, 172, 106)" cx="28.14" cy="25.87" r="5.01" />
        <circle id="clearCode-oval4" stroke="none" fill="rgb(126, 172, 106)" cx="5.71" cy="21.68" r="2.55" />
        <path id="clearCode-bezier4" stroke="none" fill="rgb(126, 172, 106)" d="M 48.9,19.13 C 48.86,19.14 48.5,18.31 48.09,17.28 L 45.02,9.53 C 44.61,8.5 44.2,7.7 44.1,7.73 44,7.76 44.19,8.64 44.53,9.7 L 47.04,17.6 C 47.38,18.66 47.11,19.81 46.75,20.43 46.54,20.8 46.42,21.22 46.42,21.68 46.42,23.08 47.56,24.23 48.97,24.23 50.38,24.23 51.52,23.08 51.52,21.68 51.52,20.27 50.38,19.13 48.97,19.13 48.95,19.13 48.92,19.13 48.9,19.13 Z M 48.9,19.13" />
        <path id="clearCode-bezier6" stroke="none" fill="rgb(230, 29, 29)" d="M 20.89,12.88 C 20.56,13.02 20.19,13.23 19.81,13.5 18.89,14.17 18.22,16.74 20.21,16.76 21.5,16.77 22.67,15.66 22.79,14.41 22.89,13.42 22.8,12.34 22.51,11.43 22.24,10.57 21.48,8.79 20.93,7.39 20.53,6.37 21.12,5.76 22.03,6.26 22.64,6.6 23.24,7 23.53,7.39 24.36,8.5 24.57,9.91 24.42,11.23 24.41,11.28 24.41,11.34 24.4,11.39 24.4,11.49 24.58,10.92 24.7,10.11 24.79,9.53 24.85,8.94 24.8,8.65 24.46,6.56 23.34,5.73 21.82,4.6 21.01,3.99 19.03,2.16 18.72,2.31 18.4,2.46 20.45,7.74 21.32,10.46 21.44,10.84 21.57,11.22 21.7,11.61 21.91,12.25 21.52,12.62 20.89,12.88 Z M 20.89,12.88" />
    </g>
    
    <text  fill="rgb(0, 0, 0)" font-family="CourierNewPS-BoldMT, 'Courier New', Courier, 'Lucida Sans Typewriter', 'Lucida Typewriter', monospace" font-weight="bold" font-size="7" x="57" y="14"><tspan x="57" y="21">note.property.value = …</tspan></text>
    
    <text  fill="rgb(0, 0, 0)" font-family="CourierNewPS-BoldMT, 'Courier New', Courier, 'Lucida Sans Typewriter', 'Lucida Typewriter', monospace" font-weight="bold" font-size="7" x="55" y="4"><tspan x="55" y="12">[instrument playNote:note];</tspan></text>
    <rect id="clearCode-rectangle" stroke="none" fill="rgb(103, 166, 255)" x="55" y="31" width="71" height="18" rx="4" />
    <text  fill="rgb(255, 255, 255)" font-family="STHeitiSC-Medium, 'Heiti SC', sans-serif" font-size="7" x="67.26" y="36" text-anchor="middle"><tspan x="90.5" y="43">[Objective-C]</tspan></text>
    <rect id="clearCode-rectangle2" stroke="none" fill="rgb(255, 109, 48)" x="130" y="31" width="40" height="18" rx="4" />
    <text  fill="rgb(255, 255, 255)" font-family="STHeitiSC-Medium, 'Heiti SC', sans-serif" font-size="7" x="142.36" y="36" text-anchor="middle"><tspan x="150" y="43">Swift</tspan></text>
</svg>
