<svg xmlns="http://www.w3.org/2000/svg" width="172" height="52" id="clearCode"><g id="clearCode-group"><path id="clearCode-bezier2" fill="#7EAC6A" d="M11.87 22.45c-.74-.82-1.65-.7-2.1.31l-1.18 2.66c-.44 1.01-.05 2.31.86 2.93 2.55 1.72 7.35 5.14 9.7 7.98.7.85 1.69 2.36 2.06 3.41.46 1.34.88 3.61.64 7.27-.07 1.1.71 1.99 1.82 1.99h8.3c1.11 0 1.89-.89 1.82-1.99-.24-3.66.18-5.93.64-7.27.37-1.04 1.35-2.56 2.06-3.41 2.35-2.84 7.15-6.26 9.69-7.98.92-.62 1.31-1.92.87-2.93l-1.18-2.66c-.45-1.01-1.36-1.12-2.09-.29-2.59 2.95-8.84 9.12-15.84 9.4-7.02-.28-13.42-6.48-16.07-9.42zm0 0"/><circle id="clearCode-oval2" fill="#7EAC6A" cx="28.14" cy="25.87" r="5.01"/><circle id="clearCode-oval4" fill="#7EAC6A" cx="5.71" cy="21.68" r="2.55"/><path id="clearCode-bezier4" fill="#7EAC6A" d="M48.9 19.13c-.04.01-.4-.82-.81-1.85l-3.07-7.75c-.41-1.03-.82-1.83-.92-1.8-.1.03.09.91.43 1.97l2.51 7.9c.34 1.06.07 2.21-.29 2.83-.21.37-.33.79-.33 1.25 0 1.4 1.14 2.55 2.55 2.55s2.55-1.15 2.55-2.55c0-1.41-1.14-2.55-2.55-2.55h-.07zm0 0"/><path id="clearCode-bezier6" fill="#E61D1D" d="M20.89 12.88c-.33.14-.7.35-1.08.62-.92.67-1.59 3.24.4 3.26 1.29.01 2.46-1.1 2.58-2.35.1-.99.01-2.07-.28-2.98-.27-.86-1.03-2.64-1.58-4.04-.4-1.02.19-1.63 1.1-1.13.61.34 1.21.74 1.5 1.13.83 1.11 1.04 2.52.89 3.84-.01.05-.01.11-.02.16 0 .1.18-.47.3-1.28.09-.58.15-1.17.1-1.46-.34-2.09-1.46-2.92-2.98-4.05-.81-.61-2.79-2.44-3.1-2.29-.32.15 1.73 5.43 2.6 8.15.12.38.25.76.38 1.15.21.64-.18 1.01-.81 1.27zm0 0"/></g><text font-family="CourierNewPS-BoldMT, 'Courier New', Courier, 'Lucida Sans Typewriter', 'Lucida Typewriter', monospace" font-weight="bold" font-size="7" x="57" y="14"><tspan x="57" y="21">note.property.value = …</tspan></text><text font-family="CourierNewPS-BoldMT, 'Courier New', Courier, 'Lucida Sans Typewriter', 'Lucida Typewriter', monospace" font-weight="bold" font-size="7" x="55" y="4"><tspan x="55" y="12">[instrument playNote:note];</tspan></text><rect id="clearCode-rectangle" fill="#67A6FF" x="55" y="31" width="71" height="18" rx="4"/><text fill="#FFF" font-family="STHeitiSC-Medium, 'Heiti SC', sans-serif" font-size="7" x="67.26" y="36" text-anchor="middle"><tspan x="90.5" y="43">[Objective-C]</tspan></text><rect id="clearCode-rectangle2" fill="#FF6D30" x="130" y="31" width="40" height="18" rx="4"/><text fill="#FFF" font-family="STHeitiSC-Medium, 'Heiti SC', sans-serif" font-size="7" x="142.36" y="36" text-anchor="middle"><tspan x="150" y="43">Swift</tspan></text></svg>